<svg xmlns="http://www.w3.org/2000/svg" width="18" height="19" viewBox="0 0 18 19" fill="none">
<path d="M8.99973 1.2207C4.43107 1.2207 0.719727 4.93205 0.719727 9.5007C0.719727 14.0694 4.43107 17.7807 8.99973 17.7807C13.5684 17.7807 17.2797 14.0694 17.2797 9.5007C17.2797 4.93205 13.5684 1.2207 8.99973 1.2207ZM8.99973 1.9407C13.1793 1.9407 16.5597 5.32117 16.5597 9.5007C16.5597 13.6802 13.1793 17.0607 8.99973 17.0607C4.82019 17.0607 1.43973 13.6802 1.43973 9.5007C1.43973 5.32117 4.82019 1.9407 8.99973 1.9407ZM13.3338 4.45719C13.2815 4.45568 13.2295 4.46559 13.1814 4.48623C13.1333 4.50688 13.0903 4.53776 13.0554 4.57672L9.42582 8.50859C9.29122 8.4507 9.14625 8.42079 8.99973 8.4207C8.71329 8.4207 8.43859 8.53449 8.23605 8.73703C8.03351 8.93957 7.91973 9.21427 7.91973 9.5007C7.91973 9.78714 8.03351 10.0618 8.23605 10.2644C8.43859 10.4669 8.71329 10.5807 8.99973 10.5807C9.06003 10.5808 9.12024 10.5759 9.17973 10.5659L10.4847 12.9158C10.5077 12.9572 10.5386 12.9936 10.5757 13.023C10.6128 13.0524 10.6553 13.0743 10.7008 13.0873C10.7463 13.1003 10.7939 13.1042 10.8409 13.0988C10.888 13.0934 10.9335 13.0787 10.9748 13.0557C11.0162 13.0328 11.0526 13.0018 11.0821 12.9648C11.1115 12.9277 11.1333 12.8852 11.1463 12.8397C11.1593 12.7941 11.1632 12.7465 11.1578 12.6995C11.1524 12.6525 11.1377 12.607 11.1147 12.5656L9.80832 10.2151C9.98283 10.018 10.0793 9.76395 10.0797 9.5007C10.0796 9.32498 10.0367 9.15192 9.95457 8.99656L13.5841 5.06469C13.6319 5.01428 13.664 4.95113 13.6767 4.88286C13.6894 4.81459 13.6821 4.7441 13.6556 4.67989C13.6292 4.61569 13.5847 4.5605 13.5276 4.52099C13.4705 4.48147 13.4032 4.45932 13.3338 4.45719Z" fill="#7E7E7E"/>
</svg>