<svg xmlns="http://www.w3.org/2000/svg" width="18" height="18" viewBox="0 0 18 18" fill="none">
<g clip-path="url(#clip0_194_2407)">
<path d="M8.99993 0.720703C7.69353 0.720703 6.53478 0.892266 5.68259 1.06945C4.68275 1.27898 3.95993 2.16211 3.95993 3.18586V6.33164L0.825403 9.46617C0.731184 9.55617 0.693215 9.69117 0.726965 9.81633C0.759309 9.94289 0.857747 10.0413 0.984309 10.0737C1.10947 10.1074 1.24447 10.0695 1.33447 9.97523L3.95993 7.34977V15.4357C3.95993 16.0812 4.39306 16.6521 5.01743 16.8237C5.78665 17.036 7.09165 17.2807 8.99993 17.2807C10.9082 17.2807 12.2132 17.036 12.9824 16.8237C13.6068 16.6521 14.0399 16.0812 14.0399 15.4357V7.34977L16.6654 9.97523C16.7554 10.0695 16.8904 10.1074 17.0156 10.0737C17.1421 10.0413 17.2406 9.94289 17.2729 9.81633C17.3067 9.69117 17.2687 9.55617 17.1745 9.46617L14.0399 6.33164V3.18586C14.0399 2.16211 13.3171 1.27898 12.3173 1.06945C11.4651 0.892266 10.3063 0.720703 8.99993 0.720703ZM8.99993 1.4407C10.2431 1.4407 11.3554 1.60523 12.1696 1.77539C12.8432 1.91602 13.3199 2.49961 13.3199 3.18586V6.43148C13.3157 6.46383 13.3157 6.49477 13.3199 6.52711V15.4357C13.3199 15.762 13.1076 16.0432 12.7926 16.129H12.7912C12.0852 16.3245 10.8477 16.5607 8.99993 16.5607C7.15212 16.5607 5.91462 16.3245 5.20868 16.129H5.20728C4.89228 16.0432 4.67993 15.762 4.67993 15.4357V6.5257C4.68415 6.49336 4.68415 6.45961 4.67993 6.42727V3.18586C4.67993 2.49961 5.15665 1.91461 5.83025 1.77539C6.64587 1.60523 7.75681 1.4407 8.99993 1.4407ZM8.99993 5.7607C7.18306 5.7607 5.75993 6.1207 5.75993 6.1207L7.19993 7.9207H10.7999L12.2399 6.1207C12.2399 6.1207 10.8168 5.7607 8.99993 5.7607ZM5.75993 7.36383V13.4768L6.83993 12.3968V8.6407L5.75993 7.36383ZM12.2399 7.36383L11.1599 8.6407V12.3968L12.2399 13.4768V7.36383ZM7.19993 12.9607L5.75993 14.4007C5.75993 14.4007 6.86243 14.7607 8.99853 14.7607C11.1346 14.7607 12.2399 14.4007 12.2399 14.4007L10.7999 12.9607H7.19993Z" fill="#FF730F"/>
</g>
<defs>
<clipPath id="clip0_194_2407">
<rect width="18" height="18" fill="white"/>
</clipPath>
</defs>
</svg>