<svg xmlns="http://www.w3.org/2000/svg" width="18" height="18" viewBox="0 0 18 18" fill="none">
<g clip-path="url(#clip0_194_3896)">
<path d="M12.24 0C9.06469 0 6.48 2.58328 6.48 5.76C6.48 6.46594 6.61781 7.13672 6.85125 7.7625L0.10125 14.5013L0 14.6138V17.0662L0.10125 17.1788L0.82125 17.8988L0.93375 18H3.38625L3.49875 17.8988L4.57875 16.8188L4.68 16.7063V15.84H5.54625L5.65875 15.7388L6.73875 14.6588L6.84 14.5463V14.04H7.34625L7.45875 13.9388L8.17875 13.2188L8.28 13.1063V12.6H8.78625L8.89875 12.4988L10.2375 11.1488C10.8633 11.3822 11.5341 11.52 12.24 11.52C15.4153 11.52 18 8.93531 18 5.76C18 2.58328 15.4153 0 12.24 0ZM12.24 0.72C15.0258 0.72 17.28 2.97281 17.28 5.76C17.28 8.54578 15.0258 10.8 12.24 10.8C11.5481 10.8 10.8928 10.6692 10.2938 10.4175C10.2895 10.4133 10.2867 10.4105 10.2825 10.4062C8.47266 9.64125 7.2 7.84969 7.2 5.76C7.2 2.97281 9.45422 0.72 12.24 0.72ZM12.24 1.8C11.2261 1.8 10.2108 2.18672 9.43875 2.95875L9.18 3.2175L9.43875 3.465L14.535 8.56125L14.7825 8.82L15.0413 8.56125C16.5853 7.01859 16.5853 4.50141 15.0413 2.95875C14.2692 2.18672 13.2539 1.8 12.24 1.8ZM12.24 2.52C13.0683 2.52 13.9008 2.83078 14.535 3.465C15.7134 4.64344 15.75 6.47859 14.7375 7.75125L10.2488 3.2625C10.8366 2.79563 11.5284 2.52 12.24 2.52ZM7.155 8.47125C7.69359 9.47813 8.52188 10.3064 9.52875 10.845L8.4825 11.88H7.56V12.8025L7.0425 13.32H6.12V14.2425L5.2425 15.12H3.96V16.4025L3.0825 17.28H1.2375L0.8775 16.92L6.84 10.9575C6.96938 10.8464 7.00453 10.6608 6.92297 10.5117C6.84141 10.3612 6.66563 10.2895 6.5025 10.3388C6.43359 10.3542 6.37172 10.3894 6.3225 10.44L0.72 16.0538V14.9175L7.155 8.47125Z" fill="#FF730F"/>
</g>
<defs>
<clipPath id="clip0_194_3896">
<rect width="18" height="18" fill="white"/>
</clipPath>
</defs>
</svg>