<svg xmlns="http://www.w3.org/2000/svg" width="19" height="19" viewBox="0 0 19 19" fill="none">
<path d="M9.33371 1.2207C4.76506 1.2207 1.05371 4.93205 1.05371 9.5007C1.05371 14.0694 4.76506 17.7807 9.33371 17.7807C13.9024 17.7807 17.6137 14.0694 17.6137 9.5007C17.6137 4.93205 13.9024 1.2207 9.33371 1.2207ZM9.33371 1.9407C13.5132 1.9407 16.8937 5.32117 16.8937 9.5007C16.8937 13.6802 13.5132 17.0607 9.33371 17.0607C5.15417 17.0607 1.77371 13.6802 1.77371 9.5007C1.77371 5.32117 5.15417 1.9407 9.33371 1.9407ZM9.90254 4.1007C8.94787 4.1007 8.22386 4.4129 7.7777 4.96484C7.33153 5.51679 7.17371 6.25388 7.17371 7.06227V7.7007H6.45371C6.35824 7.70071 6.26667 7.73864 6.19916 7.80616C6.13165 7.87367 6.09372 7.96523 6.09371 8.0607V9.8607C6.09372 9.95618 6.13165 10.0477 6.19916 10.1153C6.26667 10.1828 6.35824 10.2207 6.45371 10.2207H7.17371V14.5407C7.17372 14.6362 7.21165 14.7277 7.27916 14.7952C7.34667 14.8628 7.43824 14.9007 7.53371 14.9007H9.69371C9.78919 14.9007 9.88075 14.8628 9.94826 14.7952C10.0158 14.7277 10.0537 14.6362 10.0537 14.5407V10.2207H11.4937C11.577 10.2207 11.6576 10.1918 11.722 10.139C11.7864 10.0862 11.8304 10.0127 11.8467 9.93102L12.2067 8.13102C12.2171 8.07881 12.2158 8.02495 12.2028 7.97332C12.1899 7.92168 12.1657 7.87356 12.1319 7.8324C12.0982 7.79125 12.0557 7.75809 12.0076 7.73532C11.9595 7.71255 11.9069 7.70072 11.8537 7.7007H10.0537V6.91109C10.0537 6.73649 10.065 6.73792 10.1156 6.70508C10.1662 6.67223 10.349 6.6207 10.6697 6.6207H11.8537C11.9492 6.62069 12.0407 6.58276 12.1083 6.51525C12.1758 6.44774 12.2137 6.35618 12.2137 6.2607V4.8207C12.2137 4.74646 12.1907 4.67404 12.1479 4.61337C12.1051 4.5527 12.0446 4.50674 11.9746 4.4818C11.9746 4.4818 10.938 4.1007 9.90254 4.1007ZM9.90254 4.8207C10.5838 4.8207 11.2156 5.00446 11.4937 5.09141V5.9007H10.6697C10.2926 5.9007 9.98674 5.93115 9.72395 6.1018C9.46115 6.27244 9.33371 6.59934 9.33371 6.91109V8.0607C9.33372 8.15618 9.37165 8.24774 9.43916 8.31525C9.50668 8.38276 9.59824 8.42069 9.69371 8.4207H11.4143L11.1984 9.5007H9.69371C9.59824 9.50071 9.50668 9.53864 9.43916 9.60616C9.37165 9.67367 9.33372 9.76523 9.33371 9.8607V14.1807H7.89371V9.8607C7.8937 9.76523 7.85577 9.67367 7.78826 9.60616C7.72075 9.53864 7.62919 9.50071 7.53371 9.5007H6.81371V8.4207H7.53371C7.62919 8.42069 7.72075 8.38276 7.78826 8.31525C7.85577 8.24774 7.8937 8.15618 7.89371 8.0607V7.06227C7.89371 6.34965 8.03952 5.78614 8.33738 5.41766C8.63525 5.04917 9.09501 4.8207 9.90254 4.8207Z" fill="#212121"/>
</svg>