<svg width="24" height="24" viewBox="0 0 24 24" fill="none" xmlns="http://www.w3.org/2000/svg">
<g id="Icons" clip-path="url(#clip0_2_2193)">
<path id="Vector" d="M12 0.959961C5.90842 0.959961 0.959961 5.90842 0.959961 12C0.959961 18.0915 5.90842 23.04 12 23.04C18.0915 23.04 23.04 18.0915 23.04 12C23.04 5.90842 18.0915 0.959961 12 0.959961ZM12 1.91996C17.5727 1.91996 22.08 6.42724 22.08 12C22.08 17.5727 17.5727 22.08 12 22.08C6.42725 22.08 1.91996 17.5727 1.91996 12C1.91996 6.42724 6.42725 1.91996 12 1.91996ZM12.7584 4.79996C11.4855 4.79996 10.5202 5.21622 9.92527 5.95215C9.33039 6.68807 9.11996 7.67086 9.11996 8.74871V9.59996H8.15996C8.03266 9.59997 7.91058 9.65055 7.82056 9.74056C7.73055 9.83058 7.67997 9.95266 7.67996 10.08V12.48C7.67997 12.6073 7.73055 12.7293 7.82056 12.8194C7.91058 12.9094 8.03266 12.9599 8.15996 12.96H9.11996V18.72C9.11997 18.8473 9.17055 18.9693 9.26056 19.0594C9.35058 19.1494 9.47266 19.1999 9.59996 19.2H12.48C12.6073 19.1999 12.7293 19.1494 12.8194 19.0594C12.9094 18.9693 12.9599 18.8473 12.96 18.72V12.96H14.88C14.991 12.9599 15.0985 12.9214 15.1843 12.851C15.2701 12.7806 15.3289 12.6826 15.3506 12.5737L15.8306 10.1737C15.8444 10.1041 15.8427 10.0323 15.8255 9.96345C15.8082 9.8946 15.7759 9.83043 15.7309 9.77556C15.6859 9.72069 15.6293 9.67648 15.5652 9.64612C15.501 9.61575 15.4309 9.59999 15.36 9.59996H12.96V8.54715C12.96 8.31434 12.975 8.31626 13.0425 8.27246C13.1099 8.22867 13.3537 8.15996 13.7812 8.15996H15.36C15.4873 8.15995 15.6093 8.10937 15.6994 8.01936C15.7894 7.92934 15.8399 7.80726 15.84 7.67996V5.75996C15.8399 5.66097 15.8093 5.56441 15.7522 5.48352C15.6951 5.40262 15.6145 5.34135 15.5212 5.30809C15.5212 5.30809 14.139 4.79996 12.7584 4.79996ZM12.7584 5.75996C13.6668 5.75996 14.5092 6.00498 14.88 6.1209V7.19996H13.7812C13.2785 7.19996 12.8707 7.24056 12.5203 7.46809C12.1699 7.69561 12 8.13148 12 8.54715V10.08C12 10.2073 12.0506 10.3293 12.1406 10.4194C12.2306 10.5094 12.3527 10.5599 12.48 10.56H14.774L14.4862 12H12.48C12.3527 12 12.2306 12.0505 12.1406 12.1406C12.0506 12.2306 12 12.3527 12 12.48V18.24H10.08V12.48C10.0799 12.3527 10.0294 12.2306 9.93936 12.1406C9.84934 12.0505 9.72726 12 9.59996 12H8.63996V10.56H9.59996C9.72726 10.5599 9.84934 10.5094 9.93936 10.4194C10.0294 10.3293 10.0799 10.2073 10.08 10.08V8.74871C10.08 7.79856 10.2744 7.04721 10.6715 6.5559C11.0687 6.06458 11.6817 5.75996 12.7584 5.75996Z" fill="#7E7E7E"/>
</g>
<defs>
<clipPath id="clip0_2_2193">
<rect width="24" height="24" fill="white"/>
</clipPath>
</defs>
</svg>
