<svg xmlns="http://www.w3.org/2000/svg" width="18" height="18" viewBox="0 0 18 18" fill="none">
<g clip-path="url(#clip0_194_5481)">
<path d="M3.35273 0C2.29804 0 1.44023 0.857813 1.44023 1.9125V15.84H1.08023C1.06898 15.84 1.05773 15.84 1.04648 15.84C0.86085 15.8569 0.718819 16.013 0.720225 16.2V17.64C0.720225 17.8383 0.881944 18 1.08023 18H12.9602C13.1585 18 13.3202 17.8383 13.3202 17.64V16.2C13.3202 16.0017 13.1585 15.84 12.9602 15.84H12.6002V9.77625C13.2316 9.93094 13.6802 10.4681 13.6802 11.16V12.96C13.6802 14.1567 14.6435 15.12 15.8402 15.12C17.0369 15.12 18.0002 14.1567 18.0002 12.96V6.98625C18.0002 6.55594 17.8258 6.14813 17.539 5.86125L13.579 1.90125L13.0615 2.41875L15.1202 4.4775V7.41375C15.1202 7.84406 15.2946 8.25187 15.5815 8.53875L17.2802 10.2375V12.96C17.2802 13.7798 16.6601 14.4 15.8402 14.4C15.0204 14.4 14.4002 13.7798 14.4002 12.96V11.16C14.4002 10.0856 13.6254 9.20391 12.6002 9.03375V1.9125C12.6002 0.857813 11.7424 0 10.6877 0H3.35273ZM3.35273 0.72H10.6877C11.3613 0.72 11.8802 1.23891 11.8802 1.9125V15.84H2.16023V1.9125C2.16023 1.23891 2.67913 0.72 3.35273 0.72ZM3.92648 1.44C3.34991 1.44 2.88022 1.90969 2.88022 2.48625V6.15375C2.88022 6.73031 3.34991 7.2 3.92648 7.2H10.114C10.6905 7.2 11.1602 6.73031 11.1602 6.15375V2.48625C11.1602 1.90969 10.6905 1.44 10.114 1.44H3.92648ZM3.92648 2.16H10.114C10.2574 2.16 10.4402 2.34281 10.4402 2.48625V6.15375C10.4402 6.29719 10.2574 6.48 10.114 6.48H3.92648C3.78304 6.48 3.60022 6.29719 3.60022 6.15375V2.48625C3.60022 2.34281 3.78304 2.16 3.92648 2.16ZM15.8402 5.1975L17.0215 6.37875C17.1663 6.52359 17.2802 6.76828 17.2802 6.98625V9.2025L16.099 8.02125C15.9541 7.87641 15.8402 7.63172 15.8402 7.41375V5.1975ZM1.44023 16.56H12.6002V17.28H1.44023V16.56Z" fill="#FF730F"/>
</g>
<defs>
<clipPath id="clip0_194_5481">
<rect width="18" height="18" fill="white"/>
</clipPath>
</defs>
</svg>