<svg width="19" height="19" viewBox="0 0 19 19" fill="none" xmlns="http://www.w3.org/2000/svg">
<g id="Icons">
<path id="Vector" d="M6.09357 1.58008C3.51327 1.58008 1.41357 3.67977 1.41357 6.26008V12.7401C1.41357 15.3204 3.51327 17.4201 6.09357 17.4201H12.5736C15.1539 17.4201 17.2536 15.3204 17.2536 12.7401V6.26008C17.2536 3.67977 15.1539 1.58008 12.5736 1.58008H6.09357ZM6.09357 2.30008H12.5736C14.7647 2.30008 16.5336 4.06894 16.5336 6.26008V12.7401C16.5336 14.9312 14.7647 16.7001 12.5736 16.7001H6.09357C3.90244 16.7001 2.13357 14.9312 2.13357 12.7401V6.26008C2.13357 4.06894 3.90244 2.30008 6.09357 2.30008ZM13.6536 4.46008C13.4626 4.46008 13.2795 4.53594 13.1445 4.67096C13.0094 4.80599 12.9336 4.98912 12.9336 5.18008C12.9336 5.37103 13.0094 5.55417 13.1445 5.6892C13.2795 5.82422 13.4626 5.90008 13.6536 5.90008C13.8445 5.90008 14.0277 5.82422 14.1627 5.6892C14.2977 5.55417 14.3736 5.37103 14.3736 5.18008C14.3736 4.98912 14.2977 4.80599 14.1627 4.67096C14.0277 4.53594 13.8445 4.46008 13.6536 4.46008ZM9.33357 5.54008C7.15079 5.54008 5.37357 7.31729 5.37357 9.50008C5.37357 11.6829 7.15079 13.4601 9.33357 13.4601C11.5164 13.4601 13.2936 11.6829 13.2936 9.50008C13.2936 7.31729 11.5164 5.54008 9.33357 5.54008ZM9.33357 6.26008C11.1272 6.26008 12.5736 7.70641 12.5736 9.50008C12.5736 11.2937 11.1272 12.7401 9.33357 12.7401C7.53991 12.7401 6.09357 11.2937 6.09357 9.50008C6.09357 7.70641 7.53991 6.26008 9.33357 6.26008Z" fill="#212121"/>
</g>
</svg>
