<svg xmlns="http://www.w3.org/2000/svg" width="18" height="18" viewBox="0 0 18 18" fill="none">
<path d="M2.4525 3.96094C2.31047 3.98906 2.19938 4.10016 2.17125 4.24219L0.0112535 13.6022C-0.0126527 13.7091 0.0126598 13.8202 0.0801597 13.9045C0.149066 13.9903 0.251722 14.0395 0.360004 14.0409H17.64C17.7483 14.0395 17.8509 13.9903 17.9198 13.9045C17.9873 13.8202 18.0127 13.7091 17.9888 13.6022L15.8288 4.24219C15.7922 4.07906 15.6473 3.96234 15.48 3.96094H2.52C2.50875 3.96094 2.4975 3.96094 2.48625 3.96094C2.475 3.96094 2.46375 3.96094 2.4525 3.96094ZM2.80125 4.68094H8.64V5.04094H9.36V4.68094H15.1988L17.19 13.3209H9.36V12.2409H8.64V13.3209H0.810004L2.80125 4.68094ZM8.64 5.76094V7.20094H9.36V5.76094H8.64ZM8.64 7.92094V9.36094H9.36V7.92094H8.64ZM8.64 10.0809V11.5209H9.36V10.0809H8.64Z" fill="#FF730F"/>
</svg>