<svg xmlns="http://www.w3.org/2000/svg" width="25" height="24" viewBox="0 0 25 24" fill="none">
<path d="M12.3335 0.865234C7.66065 0.865234 3.88477 4.63861 3.88477 9.31211C3.88477 14.9636 9.40668 20.3127 11.9913 22.9462L12.3335 23.2949L12.6757 22.9462C15.3095 20.2635 20.7823 14.9611 20.7823 9.31211C20.7823 4.68514 17.0099 0.865234 12.3335 0.865234ZM12.3335 1.82523C16.4881 1.82523 19.8223 5.20596 19.8223 9.31211C19.8223 14.1378 15.0519 19.1404 12.3335 21.914C9.65485 19.1798 4.84477 14.1329 4.84477 9.31211C4.84477 5.1536 8.17534 1.82523 12.3335 1.82523ZM12.341 5.53211C10.2213 5.53211 8.89102 7.03263 8.89102 9.43023C8.89102 11.8178 10.1911 13.333 12.341 13.333C14.4809 13.333 15.7751 11.8125 15.7751 9.43023C15.7751 7.03743 14.4708 5.53163 12.341 5.53211ZM12.341 6.49117C13.8002 6.49117 14.6979 7.63071 14.6979 9.43023C14.6979 11.2197 13.8055 12.374 12.341 12.374C10.8564 12.374 9.96914 11.2197 9.96914 9.43023C9.96914 7.63071 10.8818 6.49117 12.341 6.49117Z" fill="#FF730F"/>
</svg>