<svg xmlns="http://www.w3.org/2000/svg" width="18" height="18" viewBox="0 0 18 18" fill="none">
<g clip-path="url(#clip0_194_2476)">
<path d="M8.9998 0.720703C6.4195 0.720703 4.3198 2.8204 4.3198 5.4007V7.5607H2.8798C2.28762 7.5607 1.7998 8.04851 1.7998 8.6407V16.9207C1.7998 17.5129 2.28762 18.0007 2.8798 18.0007H15.1198C15.712 18.0007 16.1998 17.5129 16.1998 16.9207V8.6407C16.1998 8.04851 15.712 7.5607 15.1198 7.5607H13.6798V5.4007C13.6798 2.8204 11.5801 0.720703 8.9998 0.720703ZM8.9998 1.4407C11.1909 1.4407 12.9598 3.20957 12.9598 5.4007V7.5607H5.0398V5.4007C5.0398 3.20957 6.80867 1.4407 8.9998 1.4407ZM2.8798 8.2807H15.1198C15.3232 8.2807 15.4798 8.43729 15.4798 8.6407V16.9207C15.4798 17.1241 15.3232 17.2807 15.1198 17.2807H2.8798C2.67639 17.2807 2.5198 17.1241 2.5198 16.9207V8.6407C2.5198 8.43729 2.67639 8.2807 2.8798 8.2807ZM4.6798 12.2407C4.48885 12.2407 4.30571 12.3166 4.17069 12.4516C4.03566 12.5866 3.9598 12.7697 3.9598 12.9607C3.9598 13.1517 4.03566 13.3348 4.17069 13.4698C4.30571 13.6048 4.48885 13.6807 4.6798 13.6807C4.87076 13.6807 5.05389 13.6048 5.18892 13.4698C5.32395 13.3348 5.3998 13.1517 5.3998 12.9607C5.3998 12.7697 5.32395 12.5866 5.18892 12.4516C5.05389 12.3166 4.87076 12.2407 4.6798 12.2407ZM7.5598 12.2407C7.36885 12.2407 7.18571 12.3166 7.05069 12.4516C6.91566 12.5866 6.8398 12.7697 6.8398 12.9607C6.8398 13.1517 6.91566 13.3348 7.05069 13.4698C7.18571 13.6048 7.36885 13.6807 7.5598 13.6807C7.75076 13.6807 7.9339 13.6048 8.06892 13.4698C8.20395 13.3348 8.2798 13.1517 8.2798 12.9607C8.2798 12.7697 8.20395 12.5866 8.06892 12.4516C7.9339 12.3166 7.75076 12.2407 7.5598 12.2407ZM10.4398 12.2407C10.2488 12.2407 10.0657 12.3166 9.93069 12.4516C9.79566 12.5866 9.7198 12.7697 9.7198 12.9607C9.7198 13.1517 9.79566 13.3348 9.93069 13.4698C10.0657 13.6048 10.2488 13.6807 10.4398 13.6807C10.6308 13.6807 10.8139 13.6048 10.9489 13.4698C11.0839 13.3348 11.1598 13.1517 11.1598 12.9607C11.1598 12.7697 11.0839 12.5866 10.9489 12.4516C10.8139 12.3166 10.6308 12.2407 10.4398 12.2407ZM13.3198 12.2407C13.1288 12.2407 12.9457 12.3166 12.8107 12.4516C12.6757 12.5866 12.5998 12.7697 12.5998 12.9607C12.5998 13.1517 12.6757 13.3348 12.8107 13.4698C12.9457 13.6048 13.1288 13.6807 13.3198 13.6807C13.5108 13.6807 13.6939 13.6048 13.8289 13.4698C13.9639 13.3348 14.0398 13.1517 14.0398 12.9607C14.0398 12.7697 13.9639 12.5866 13.8289 12.4516C13.6939 12.3166 13.5108 12.2407 13.3198 12.2407Z" fill="#FF730F"/>
</g>
<defs>
<clipPath id="clip0_194_2476">
<rect width="18" height="18" fill="white"/>
</clipPath>
</defs>
</svg>