<svg xmlns="http://www.w3.org/2000/svg" width="18" height="18" viewBox="0 0 18 18" fill="none">
<g clip-path="url(#clip0_194_3764)">
<path d="M7.2675 1.80078C6.84422 1.80078 6.48 2.165 6.48 2.58828V4.32078H1.11375C0.502031 4.32078 0 4.82281 0 5.43453V16.887C0 17.4988 0.502031 18.0008 1.11375 18.0008H16.8863C17.498 18.0008 18 17.4988 18 16.887V5.43453C18 4.82281 17.498 4.32078 16.8863 4.32078H11.52V2.58828C11.52 2.165 11.1558 1.80078 10.7325 1.80078H7.2675ZM7.2 2.52078C7.20703 2.51375 7.22672 2.52078 7.2675 2.52078H10.7325C10.8127 2.52078 10.8 2.50813 10.8 2.58828V4.32078H7.2V2.58828C7.2 2.5475 7.19297 2.52781 7.2 2.52078ZM1.11375 5.04078H16.8863C17.138 5.04078 17.28 5.18281 17.28 5.43453V16.887C17.28 17.1388 17.138 17.2808 16.8863 17.2808H1.11375C0.862031 17.2808 0.72 17.1388 0.72 16.887V5.43453C0.72 5.18281 0.862031 5.04078 1.11375 5.04078ZM9.54 6.48078C8.45016 6.48078 7.56 7.37094 7.56 8.46078C7.56 9.55063 8.45016 10.4408 9.54 10.4408C10.6298 10.4408 11.52 9.55063 11.52 8.46078C11.52 7.37094 10.6298 6.48078 9.54 6.48078ZM9.54 7.20078C10.2403 7.20078 10.8 7.76047 10.8 8.46078C10.8 9.16109 10.2403 9.72078 9.54 9.72078C8.83969 9.72078 8.28 9.16109 8.28 8.46078C8.28 7.76047 8.83969 7.20078 9.54 7.20078ZM14.9963 9.78828C14.9147 9.78406 14.8275 9.80234 14.7488 9.83328L14.7375 9.81078L10.44 11.4533L10.3837 11.4758L10.395 11.4983C10.0645 11.6066 9.88875 11.9736 10.0125 12.2858L9.99 12.297L10.71 14.1983L10.7325 14.187C10.838 14.5259 11.2261 14.7144 11.5425 14.5808V14.592L11.5763 14.5808L15.8963 12.9383L15.885 12.9158C16.2197 12.8103 16.3913 12.4419 16.2675 12.1283L16.29 12.117L15.57 10.2045L15.5475 10.2158C15.4688 9.96406 15.2409 9.79953 14.9963 9.78828ZM14.9175 10.5195L15.5813 12.2858L11.3625 13.8833L10.6988 12.1283L14.9175 10.5195Z" fill="#FF730F"/>
</g>
<defs>
<clipPath id="clip0_194_3764">
<rect width="18" height="18" fill="white"/>
</clipPath>
</defs>
</svg>