<svg xmlns="http://www.w3.org/2000/svg" width="18" height="18" viewBox="0 0 18 18" fill="none">
<path d="M8.99432 3.96094C8.99432 3.96094 8.09785 3.97536 7.15494 4.01297C6.68349 4.03178 6.20065 4.0562 5.80705 4.0882C5.61025 4.1042 5.43593 4.122 5.29166 4.14305C5.14739 4.1641 5.05831 4.16464 4.90705 4.24359C4.35386 4.533 4.02904 5.14605 3.7265 5.78063C3.55671 6.13678 3.40689 6.4936 3.26947 6.82336C3.1305 6.59225 2.91657 6.48094 2.83143 6.48094C2.64387 6.48094 2.00693 6.6785 1.95041 6.72422C1.89389 6.76994 1.79994 7.20371 1.79994 7.32539C1.79994 7.44707 2.04969 7.5532 2.19369 7.5532C2.2864 7.5532 2.62483 7.55589 2.93338 7.55813C2.87772 7.63369 2.74771 7.7781 2.56002 7.9582C2.3391 8.17019 2.07032 8.42813 1.85057 8.75766C1.64015 9.07302 1.43994 9.66844 1.43994 10.8009C1.43994 10.9266 1.44831 11.0938 1.45471 11.2509H1.43994V15.4809C1.43994 15.8744 1.76644 16.2009 2.15994 16.2009H3.59994C3.99344 16.2009 4.31994 15.8744 4.31994 15.4809V14.9304C5.45828 15.0308 6.97953 15.1209 8.99994 15.1209C11.0203 15.1209 12.5416 15.0308 13.6799 14.9304V15.4809C13.6799 15.8744 14.0064 16.2009 14.3999 16.2009H15.8399C16.2334 16.2009 16.5599 15.8744 16.5599 15.4809V11.2509H16.5452C16.5516 11.0938 16.5599 10.9266 16.5599 10.8009C16.5599 9.66844 16.3597 9.07302 16.1493 8.75766C15.9296 8.42813 15.6608 8.17019 15.4399 7.9582C15.2522 7.7781 15.1222 7.63369 15.0665 7.55813C15.3751 7.55589 15.7135 7.5532 15.8062 7.5532C15.9502 7.5532 16.1999 7.44707 16.1999 7.32539C16.1999 7.20371 16.106 6.76994 16.0495 6.72422C15.993 6.6785 15.356 6.48094 15.1685 6.48094C15.0833 6.48094 14.8694 6.59225 14.7304 6.82336C14.593 6.4936 14.4432 6.13678 14.2734 5.78063C13.9708 5.14605 13.646 4.533 13.0928 4.24359C12.9416 4.16464 12.8525 4.1641 12.7082 4.14305C12.564 4.122 12.3896 4.1042 12.1928 4.0882C11.7992 4.0562 11.3164 4.03177 10.8449 4.01297C9.90203 3.97536 9.00557 3.96094 9.00557 3.96094H8.99994H8.99432ZM8.99432 4.68094C8.99432 4.68094 9.88476 4.69509 10.8168 4.73227C11.2828 4.75086 11.7589 4.77556 12.1345 4.80609C12.3223 4.82136 12.4855 4.838 12.6042 4.85531C12.6909 4.86797 12.7661 4.89258 12.7764 4.89258C13.0083 5.02768 13.3477 5.5117 13.6237 6.0907C13.7402 6.33499 13.8465 6.59059 13.9513 6.84094H4.04854C4.15337 6.59059 4.25973 6.33499 4.37619 6.0907C4.65223 5.5117 4.99163 5.02768 5.22346 4.89258C5.23374 4.89258 5.30897 4.86797 5.39572 4.85531C5.51435 4.838 5.67761 4.82136 5.86541 4.80609C6.24101 4.77555 6.71704 4.75085 7.18307 4.73227C8.10938 4.69532 8.98343 4.68111 8.99432 4.68094ZM4.21728 7.56094H13.7826C13.6793 7.64936 13.5761 7.74135 13.4662 7.84781C13.1941 8.11137 12.9086 8.42074 12.6463 8.71758C12.1284 9.30389 11.7126 9.83068 11.7021 9.84398C11.5651 10.0004 11.3678 10.0894 11.1599 10.0894H8.99994H6.83994C6.63203 10.0894 6.43479 10.0004 6.29783 9.84398C6.28731 9.83068 5.87148 9.30389 5.35353 8.71758C5.09131 8.42074 4.80575 8.11137 4.53369 7.84781C4.42379 7.74135 4.32055 7.64936 4.21728 7.56094ZM3.54228 7.95539C3.66456 8.03879 3.83547 8.17458 4.03236 8.36531C4.28289 8.60801 4.55898 8.90614 4.81353 9.1943C5.32265 9.77062 5.74447 10.3038 5.74447 10.3038L5.7501 10.3116L5.75643 10.3179C6.02987 10.6302 6.42505 10.8094 6.83994 10.8094H8.99994H11.1599C11.5748 10.8094 11.97 10.6302 12.2435 10.3179L12.2498 10.3116L12.2554 10.3038C12.2554 10.3038 12.6772 9.77062 13.1863 9.1943C13.4409 8.90614 13.717 8.60801 13.9675 8.36531C14.1644 8.17458 14.3353 8.03879 14.4576 7.95539C14.5884 8.15546 14.7623 8.30531 14.9413 8.47711C15.159 8.68596 15.3859 8.91126 15.5503 9.15773C15.63 9.27725 15.8399 9.75904 15.8399 10.8009C15.8399 11.4957 15.7 13.0606 15.6135 13.7203C15.5922 13.8835 15.4746 14.0039 15.3133 14.0276C14.4118 14.1601 12.3183 14.4009 8.99994 14.4009C5.68161 14.4009 3.58812 14.1601 2.68658 14.0276C2.52527 14.0039 2.40772 13.8835 2.38635 13.7203C2.29988 13.0606 2.15994 11.4957 2.15994 10.8009C2.15994 9.75904 2.36989 9.27725 2.44963 9.15773C2.614 8.91126 2.84089 8.68596 3.05854 8.47711C3.23758 8.30531 3.41151 8.15546 3.54228 7.95539ZM3.25119 9.00094C2.53119 9.0049 2.51994 10.1646 2.51994 10.1646C2.51994 10.1646 2.51707 10.47 4.06471 10.4466C4.06471 10.4466 5.03776 10.4414 5.04064 10.1513C5.04316 9.88413 4.44528 9.65936 4.1526 9.54164C3.85992 9.42356 3.61119 8.99914 3.25119 9.00094ZM14.7487 9.00094C14.3887 8.99914 14.1396 9.42356 13.8473 9.54164C13.5546 9.65972 12.9567 9.88449 12.9592 10.1513C12.9621 10.4414 13.9352 10.4466 13.9352 10.4466C15.4828 10.47 15.4799 10.1646 15.4799 10.1646C15.4799 10.1646 15.4687 9.0049 14.7487 9.00094ZM5.40135 11.5188C5.34481 11.5192 5.28917 11.533 5.23893 11.5589C4.81566 11.7707 4.34823 11.8809 3.87486 11.8809H2.87994V12.2409C2.87994 12.2409 2.87973 12.455 2.93197 12.7163C2.98421 12.9775 3.08056 13.3106 3.34541 13.5755C3.37858 13.61 3.41831 13.6376 3.46228 13.6566C3.50625 13.6756 3.55356 13.6856 3.60146 13.6861C3.64935 13.6866 3.69686 13.6776 3.74121 13.6594C3.78555 13.6413 3.82584 13.6146 3.85971 13.5807C3.89357 13.5468 3.92034 13.5065 3.93845 13.4622C3.95655 13.4179 3.96563 13.3703 3.96514 13.3225C3.96465 13.2746 3.95461 13.2272 3.93561 13.1833C3.91661 13.1393 3.88902 13.0996 3.85447 13.0664C3.76424 12.9762 3.68938 12.7814 3.64916 12.6009H3.87486C4.4599 12.6009 5.03743 12.4649 5.56096 12.203C5.63456 12.1674 5.69385 12.1078 5.72908 12.034C5.76431 11.9602 5.77339 11.8767 5.75481 11.7971C5.73624 11.7174 5.69112 11.6465 5.62688 11.5959C5.56264 11.5454 5.4831 11.5182 5.40135 11.5188ZM12.5873 11.5188C12.5065 11.5207 12.4287 11.5497 12.3663 11.6011C12.304 11.6526 12.2608 11.7235 12.2437 11.8025C12.2265 11.8815 12.2365 11.9639 12.2719 12.0366C12.3073 12.1092 12.3661 12.1678 12.4389 12.203C12.9624 12.4649 13.5397 12.6009 14.125 12.6009H14.3507C14.3105 12.7814 14.2356 12.9762 14.1454 13.0664C14.1109 13.0996 14.0833 13.1393 14.0643 13.1833C14.0453 13.2272 14.0352 13.2746 14.0347 13.3225C14.0343 13.3703 14.0433 13.4179 14.0614 13.4622C14.0795 13.5065 14.1063 13.5468 14.1402 13.5807C14.174 13.6146 14.2143 13.6413 14.2587 13.6594C14.303 13.6776 14.3505 13.6866 14.3984 13.6861C14.4463 13.6856 14.4936 13.6756 14.5376 13.6566C14.5816 13.6376 14.6213 13.61 14.6545 13.5755C14.9193 13.3106 15.0157 12.9775 15.0679 12.7163C15.1202 12.455 15.1199 12.2409 15.1199 12.2409V11.8809H14.125C13.6513 11.8809 13.1843 11.7707 12.761 11.5589C12.7073 11.5312 12.6476 11.5174 12.5873 11.5188ZM6.52002 12.9609C6.20862 12.9609 5.91241 13.095 5.70721 13.3294L5.39994 13.6809H12.6808L12.3728 13.3294C12.1676 13.095 11.8714 12.9609 11.56 12.9609H9.04002H6.52002ZM2.15994 14.5774C2.28563 14.6586 2.42727 14.7171 2.58182 14.7398C2.83145 14.7765 3.17995 14.8206 3.59994 14.8657V15.4809H2.15994V14.5774ZM15.8399 14.5774V15.4809H14.3999V14.8657C14.8199 14.8206 15.1684 14.7765 15.4181 14.7398C15.5726 14.7171 15.7143 14.6586 15.8399 14.5774Z" fill="#FF730F"/>
</svg>