<svg xmlns="http://www.w3.org/2000/svg" width="18" height="18" viewBox="0 0 18 18" fill="none">
<g clip-path="url(#clip0_194_3723)">
<path d="M8.99433 0.71487C8.9738 0.715231 8.95333 0.717348 8.93316 0.721198C4.41891 0.757184 0.759237 4.41568 0.721363 8.92948C0.712671 8.97453 0.712671 9.02083 0.721363 9.06589C0.756972 13.5805 4.41561 17.2405 8.92964 17.2784C8.9747 17.2871 9.021 17.2871 9.06605 17.2784C13.5806 17.2428 17.2407 13.5841 17.2786 9.07011C17.2872 9.02505 17.2872 8.97875 17.2786 8.9337C17.2429 4.41819 13.5828 0.757571 9.06746 0.721198C9.06699 0.721195 9.06652 0.721202 9.06605 0.721198C9.04242 0.716698 9.01839 0.714578 8.99433 0.71487ZM8.63996 1.44893V1.79979C8.63928 1.8475 8.6481 1.89486 8.66588 1.93913C8.68367 1.9834 8.71008 2.02369 8.74358 2.05766C8.77707 2.09163 8.81699 2.11861 8.861 2.13702C8.90501 2.15544 8.95225 2.16492 8.99996 2.16492C9.04767 2.16492 9.0949 2.15544 9.13891 2.13702C9.18292 2.11861 9.22284 2.09163 9.25633 2.05766C9.28983 2.02369 9.31624 1.9834 9.33403 1.93913C9.35182 1.89486 9.36063 1.8475 9.35996 1.79979V1.44893C13.2526 1.63089 16.3689 4.74719 16.5508 8.63979H16.2C16.1523 8.63912 16.1049 8.64793 16.0606 8.66572C16.0164 8.68351 15.9761 8.70992 15.9421 8.74341C15.9081 8.77691 15.8811 8.81682 15.8627 8.86084C15.8443 8.90485 15.8348 8.95208 15.8348 8.99979C15.8348 9.0475 15.8443 9.09474 15.8627 9.13875C15.8811 9.18276 15.9081 9.22267 15.9421 9.25617C15.9761 9.28967 16.0164 9.31608 16.0606 9.33387C16.1049 9.35165 16.1523 9.36047 16.2 9.35979H16.5508C16.3689 13.2524 13.2526 16.3687 9.35996 16.5507V16.1998C9.36062 16.1516 9.3516 16.1038 9.33346 16.0592C9.31531 16.0146 9.28839 15.9741 9.25429 15.94C9.2202 15.906 9.17963 15.8792 9.13497 15.8611C9.09032 15.843 9.04249 15.8341 8.99433 15.8349C8.89898 15.8364 8.80811 15.8756 8.74167 15.944C8.67523 16.0125 8.63865 16.1044 8.63996 16.1998V16.5507C4.74735 16.3687 1.63105 13.2524 1.4491 9.35979H1.79996C1.84766 9.36047 1.89502 9.35165 1.93929 9.33387C1.98356 9.31608 2.02385 9.28967 2.05783 9.25617C2.0918 9.22267 2.11878 9.18276 2.13719 9.13875C2.1556 9.09474 2.16508 9.0475 2.16508 8.99979C2.16508 8.95208 2.1556 8.90485 2.13719 8.86084C2.11878 8.81682 2.0918 8.77691 2.05783 8.74341C2.02385 8.70992 1.98356 8.68351 1.93929 8.66572C1.89502 8.64793 1.84766 8.63912 1.79996 8.63979H1.4491C1.63105 4.74719 4.74735 1.63089 8.63996 1.44893ZM8.99996 2.73073C8.82824 2.73073 8.68047 2.85159 8.64699 3.01971L7.45871 8.92948C7.44935 8.97628 7.44935 9.02435 7.45871 9.07151L8.64629 14.9806C8.68012 15.1487 8.82789 15.2703 8.99925 15.2703C9.17061 15.2703 9.31874 15.1487 9.35222 14.9806L10.5412 9.07151C10.5506 9.02471 10.5506 8.97664 10.5412 8.92948L9.35293 3.01971C9.31945 2.85159 9.17168 2.73073 8.99996 2.73073ZM8.99996 4.91675L9.8205 9.0012H8.17871L8.99996 4.91675Z" fill="#FF730F"/>
</g>
<defs>
<clipPath id="clip0_194_3723">
<rect width="18" height="18" fill="white"/>
</clipPath>
</defs>
</svg>