<svg xmlns="http://www.w3.org/2000/svg" width="18" height="18" viewBox="0 0 18 18" fill="none">
<path d="M13.6926 5.03522C13.5463 5.03241 13.4127 5.1196 13.3537 5.25319C13.296 5.38819 13.3255 5.54429 13.4282 5.64835L16.2997 8.63944H0.72834C0.598965 8.63803 0.478027 8.70553 0.41334 8.81803C0.347246 8.93053 0.347246 9.06835 0.41334 9.18085C0.478027 9.29335 0.598965 9.36085 0.72834 9.35944H16.2997L13.4282 12.3505C13.2904 12.494 13.296 12.7218 13.4394 12.8596C13.5829 12.9974 13.8107 12.9932 13.9485 12.8483L17.6441 8.99944L13.9485 5.15053C13.8824 5.07882 13.7896 5.03804 13.6926 5.03522Z" fill="white"/>
</svg>