<svg xmlns="http://www.w3.org/2000/svg" width="25" height="24" viewBox="0 0 25 24" fill="none">
<path d="M3.85996 1.91992C2.54184 1.91992 1.45996 3.0018 1.45996 4.31992V15.8399C1.45996 17.158 2.54184 18.2399 3.85996 18.2399H5.82496C5.89059 18.8174 5.88309 19.3518 5.73496 19.7999C5.55309 20.3512 5.21371 20.8143 4.57996 21.1949C4.40184 21.3074 4.31934 21.523 4.37371 21.7255C4.42809 21.928 4.60996 22.0724 4.81996 22.0799C6.85621 22.0799 9.19059 21.0168 10.37 18.2399H21.14C22.4581 18.2399 23.54 17.158 23.54 15.8399V4.31992C23.54 3.0018 22.4581 1.91992 21.14 1.91992H3.85996ZM3.85996 2.87992H21.14C21.935 2.87992 22.58 3.52492 22.58 4.31992V15.8399C22.58 16.6349 21.935 17.2799 21.14 17.2799H10.1C9.89933 17.2799 9.71934 17.4055 9.64996 17.5949C8.90371 19.6312 7.57059 20.6005 6.18496 20.9549C6.37246 20.6868 6.55059 20.4037 6.64996 20.0999C6.89934 19.3424 6.87871 18.5137 6.72496 17.6699C6.68184 17.4468 6.48871 17.2837 6.25996 17.2799H3.85996C3.06496 17.2799 2.41996 16.6349 2.41996 15.8399V4.31992C2.41996 3.52492 3.06496 2.87992 3.85996 2.87992Z" fill="white"/>
</svg>