<svg xmlns="http://www.w3.org/2000/svg" width="37" height="36" viewBox="0 0 37 36" fill="none">
<g clip-path="url(#clip0_401_925)">
<path d="M10.6899 0C8.51018 0 6.72987 1.78031 6.72987 3.96C6.72987 6.13969 8.51018 7.92 10.6899 7.92C12.8696 7.92 14.6499 6.13969 14.6499 3.96C14.6499 1.78031 12.8696 0 10.6899 0ZM30.8499 0C28.6702 0 26.8899 1.78031 26.8899 3.96C26.8899 6.13969 28.6702 7.92 30.8499 7.92C33.0296 7.92 34.8099 6.13969 34.8099 3.96C34.8099 1.78031 33.0296 0 30.8499 0ZM10.6899 1.44C12.0905 1.44 13.2099 2.55938 13.2099 3.96C13.2099 5.36063 12.0905 6.48 10.6899 6.48C9.28925 6.48 8.16987 5.36063 8.16987 3.96C8.16987 2.55938 9.28925 1.44 10.6899 1.44ZM30.8499 1.44C32.2505 1.44 33.3699 2.55938 33.3699 3.96C33.3699 5.36063 32.2505 6.48 30.8499 6.48C29.4492 6.48 28.3299 5.36063 28.3299 3.96C28.3299 2.55938 29.4492 1.44 30.8499 1.44ZM19.5549 5.04C19.2117 5.10469 18.9642 5.40844 18.9699 5.76V10.08C18.9727 10.1813 18.9952 10.2797 19.0374 10.3725L17.1699 12.2175L15.3699 9.8775V9.855H15.3474C14.4755 8.65406 13.0749 7.9875 11.6349 7.9875H9.18237C7.478 7.9875 5.95362 8.94094 5.10987 10.3725L0.497372 18.2925C0.488934 18.2925 0.483309 18.2925 0.474872 18.2925C-0.0116908 19.17 0.244247 20.2697 1.01487 20.88H0.249872V22.32H26.1699V20.88H16.3149L15.3924 16.6275C15.7355 17.0381 16.2052 17.3475 16.8099 17.3475H16.8774C17.4286 17.3475 17.9321 17.1703 18.3174 16.785L22.1874 12.915C22.1958 12.9066 22.2014 12.9009 22.2099 12.8925C22.8286 12.3328 22.9974 11.4975 22.7499 10.7775C23.0677 10.6959 23.2899 10.4091 23.2899 10.08V5.76C23.2899 5.36344 22.9664 5.04 22.5699 5.04H19.6899C19.6674 5.04 19.6449 5.04 19.6224 5.04C19.5999 5.04 19.5774 5.04 19.5549 5.04ZM20.1849 20.88C20.7136 20.88 21.1721 20.7028 21.5574 20.3175L26.8224 15.0525L26.8899 33.84C26.8899 35.0241 27.8658 36 29.0499 36H31.9299C33.1139 36 34.0899 35.0241 34.0899 33.84V24.48C35.2739 24.48 36.2499 23.5041 36.2499 22.32V13.32C36.2499 10.7606 34.1292 8.64 31.5699 8.64H29.7699C28.448 8.64 27.1683 9.14625 26.2374 10.1475C26.2289 10.1559 26.2233 10.1616 26.2149 10.17L18.9024 17.415C18.1796 18.1378 18.0502 19.3219 18.6774 20.16C18.6971 20.1853 18.7196 20.2078 18.7449 20.2275C19.1189 20.6016 19.6336 20.88 20.1849 20.88ZM20.4099 6.48H21.8499V9.36H20.4099V6.48ZM9.18237 9.4275H11.6349C12.6333 9.4275 13.6289 9.91125 14.1999 10.71C14.2083 10.7184 14.2139 10.7241 14.2224 10.7325L16.5174 13.7475C16.6411 13.9134 16.8296 14.0203 17.0377 14.0372C17.243 14.0541 17.4483 13.9809 17.5974 13.8375L20.4099 11.025C20.6236 10.8113 21.0511 10.8113 21.2649 11.025C21.4786 11.2388 21.5124 11.5988 21.2424 11.835C21.2255 11.8491 21.2114 11.8631 21.1974 11.88L17.3049 15.7725C17.2599 15.8175 17.0461 15.9075 16.8774 15.9075H16.8099C16.7367 15.9075 16.5399 15.8231 16.4499 15.705L14.5824 13.185C14.3799 12.9094 14.0142 12.8138 13.7049 12.9572C13.3927 13.0978 13.2239 13.4381 13.2999 13.77L14.8524 20.88H5.80737L7.06737 14.8275C7.12925 14.4844 6.93518 14.1469 6.60893 14.0259C6.2855 13.905 5.91706 14.0344 5.73987 14.3325L2.79237 19.5975C2.78393 19.6059 2.77831 19.6116 2.76987 19.62C2.71081 19.7381 2.46612 19.8675 2.27487 19.8675C2.05831 19.8675 2.05831 19.8675 2.02737 19.845C2.00487 19.8366 1.98237 19.8281 1.95987 19.8225C1.6505 19.6509 1.57175 19.3275 1.73487 19.0125C1.73768 19.0041 1.73206 18.9984 1.73487 18.99L6.34737 11.0925C6.94362 10.0772 8.00675 9.4275 9.18237 9.4275ZM29.7699 10.08H31.5699C33.3305 10.08 34.8099 11.5594 34.8099 13.32V22.32C34.8099 22.7194 34.4892 23.04 34.0899 23.04H33.3699C32.9733 23.04 32.6499 23.3634 32.6499 23.76V33.84C32.6499 34.2394 32.3292 34.56 31.9299 34.56H29.0499C28.6505 34.56 28.3299 34.2394 28.3299 33.84L28.2624 13.32C28.268 13.0247 28.0936 12.7519 27.8208 12.6394C27.548 12.5241 27.2302 12.5888 27.0249 12.8025L20.5449 19.2825C20.4999 19.3275 20.2327 19.44 20.1849 19.44C20.033 19.44 19.9599 19.3866 19.8024 19.2375C19.6252 18.9591 19.6646 18.7088 19.9149 18.45L27.2499 11.16C27.2583 11.1516 27.2639 11.1459 27.2724 11.1375C27.9249 10.4259 28.7967 10.08 29.7699 10.08ZM4.72737 19.1025L4.34487 20.88H3.55737C3.74581 20.7309 3.90331 20.5369 4.02987 20.295H4.05237C4.05518 20.2894 4.04956 20.2781 4.05237 20.2725L4.72737 19.1025Z" fill="#212121"/>
</g>
<defs>
<clipPath id="clip0_401_925">
<rect width="36" height="36" fill="white" transform="translate(0.25)"/>
</clipPath>
</defs>
</svg>