<svg xmlns="http://www.w3.org/2000/svg" width="18" height="18" viewBox="0 0 18 18" fill="none">
<g clip-path="url(#clip0_194_7235)">
<path d="M9.6526 1.80078C8.04807 1.80078 6.87525 2.435 6.2551 3.37578C6.12713 3.56844 6.0315 3.77094 5.95135 3.98328L5.86135 3.80328C5.80228 3.68234 5.68135 3.60359 5.54635 3.60078C4.30041 3.60078 3.36947 4.10703 2.8801 4.86078C2.43291 5.54844 2.40619 6.41328 2.68885 7.22328C2.66635 7.25984 2.61853 7.27953 2.59885 7.32453C2.53135 7.475 2.49478 7.66484 2.5201 7.88703C2.5201 7.89125 2.5201 7.89406 2.5201 7.89828C2.56088 8.22594 2.64385 8.46078 2.77885 8.64078C2.8365 8.71672 2.92791 8.71672 3.00385 8.76453C3.05728 9.03172 3.13322 9.2975 3.2401 9.51828C3.30338 9.65047 3.37088 9.76438 3.4426 9.86703C3.4665 9.90219 3.50728 9.92609 3.5326 9.95703C3.5326 10.2327 3.52275 10.4802 3.49885 10.8008C3.43416 10.9653 3.27666 11.1102 2.98135 11.262C2.679 11.4167 2.274 11.5602 1.85635 11.7458C1.43869 11.9314 0.992909 12.1564 0.641346 12.522C0.289784 12.8877 0.0408776 13.3995 9.64127e-05 14.052C-0.00552859 14.1519 0.0296277 14.2489 0.0971276 14.3206C0.166034 14.3938 0.260253 14.4345 0.360096 14.4345H2.59885C2.544 14.6398 2.50041 14.8606 2.48635 15.0983C2.48072 15.1981 2.51588 15.2952 2.58338 15.3669C2.65228 15.44 2.7465 15.4808 2.84635 15.4808H15.1538C15.2537 15.4808 15.3479 15.44 15.4168 15.3669C15.4843 15.2952 15.5195 15.1981 15.5138 15.0983C15.4984 14.8466 15.4506 14.6173 15.3901 14.4008H17.6401C17.7399 14.4008 17.8342 14.36 17.9031 14.2869C17.9706 14.2152 18.0057 14.1181 18.0001 14.0183C17.9593 13.3672 17.7076 12.8539 17.3588 12.4883C17.0101 12.1227 16.5798 11.8977 16.1663 11.712C15.7529 11.5264 15.3521 11.383 15.0526 11.2283C14.7671 11.0806 14.6153 10.9288 14.5463 10.767C14.5224 10.4759 14.5126 10.2172 14.5126 9.92328C14.5365 9.89234 14.5787 9.86703 14.6026 9.83328C14.6743 9.73203 14.732 9.61531 14.7938 9.48453C14.8937 9.27219 14.9668 9.01906 15.0076 8.76453C15.0807 8.71813 15.1665 8.71391 15.2213 8.64078C15.3563 8.46078 15.4393 8.22594 15.4801 7.89828C15.5054 7.7 15.4829 7.51438 15.4238 7.35828C15.407 7.31469 15.3451 7.28797 15.3226 7.24578C15.4013 7.06156 15.4913 6.88719 15.5138 6.66078C15.5462 6.32469 15.5195 5.94781 15.4238 5.58078C15.3282 5.21375 15.1623 4.84953 14.8726 4.56828C14.6392 4.34047 14.3101 4.20688 13.9388 4.15203L13.7926 3.81453C13.7349 3.68516 13.607 3.60219 13.4663 3.60078C12.9685 3.60078 12.4384 3.65 11.9476 3.80328C11.8196 3.51922 11.6509 3.24922 11.4188 3.02703C11.1109 2.73031 10.6778 2.55313 10.1813 2.49828L9.97885 2.01453C9.92119 1.88516 9.79322 1.80219 9.6526 1.80078ZM9.41635 2.54328L9.6076 2.95953C9.66525 3.08891 9.79322 3.17188 9.93385 3.17328C10.381 3.17328 10.6848 3.31531 10.9238 3.54453C11.1629 3.77375 11.3331 4.1 11.4301 4.46703C11.5271 4.83406 11.5538 5.23484 11.5201 5.56953C11.4863 5.90422 11.3724 6.17422 11.3063 6.25578C11.2374 6.34297 11.2135 6.45688 11.2388 6.56375C11.2656 6.67203 11.3401 6.76203 11.4413 6.80703C11.4357 6.80422 11.4413 6.80422 11.4526 6.82953C11.4723 6.87594 11.4934 6.98 11.4863 7.11078C11.4849 7.12203 11.4878 7.12203 11.4863 7.13328C11.4371 7.43141 11.3528 7.60859 11.2951 7.68453C11.2656 7.72391 11.2445 7.73656 11.2388 7.74078C11.0687 7.75484 10.9337 7.88703 10.9126 8.05578C10.8831 8.32438 10.779 8.67453 10.6538 8.94453C10.592 9.07953 10.5174 9.19344 10.4626 9.27078C10.4204 9.32844 10.3782 9.36078 10.3838 9.36078C10.2629 9.42406 10.1898 9.55063 10.1926 9.68703C10.1926 10.1553 10.1898 10.5308 10.2263 11.082C10.2292 11.1172 10.2362 11.1509 10.2488 11.1833C10.4415 11.6895 10.876 11.9947 11.3513 12.2295C11.8267 12.4644 12.3638 12.6402 12.8701 12.8595C13.3763 13.0789 13.8474 13.3433 14.1863 13.692C14.4493 13.962 14.6096 14.3192 14.7038 14.7608H3.29635C3.39057 14.3192 3.55088 13.962 3.81385 13.692C4.15275 13.3433 4.62385 13.0789 5.1301 12.8595C5.63635 12.6402 6.17353 12.4644 6.64885 12.2295C7.12416 11.9947 7.55869 11.6895 7.75135 11.1833C7.764 11.1509 7.77103 11.1172 7.77385 11.082C7.81041 10.5645 7.8076 10.1553 7.8076 9.68703C7.81041 9.55063 7.73728 9.42406 7.61635 9.36078C7.61635 9.36078 7.61353 9.35656 7.6051 9.34953C7.60228 9.34813 7.59807 9.35094 7.59385 9.34953C7.57697 9.33547 7.55307 9.30594 7.52635 9.27078C7.46869 9.19484 7.38994 9.07672 7.32385 8.94453C7.19166 8.68156 7.08338 8.34828 7.05385 8.06703C7.03697 7.90953 6.91744 7.78156 6.76135 7.75203C6.72619 7.745 6.54197 7.75344 6.4801 7.13328C6.45478 6.85625 6.58557 6.77469 6.5701 6.78453C6.72057 6.68891 6.77822 6.49766 6.7051 6.33453C6.47447 5.80438 6.40135 5.25734 6.4801 4.74828C6.56166 4.65688 6.5926 4.52891 6.55885 4.41078C6.62635 4.18719 6.72197 3.97766 6.85135 3.78078C7.29994 3.10156 8.14369 2.60375 9.41635 2.54328ZM13.2413 4.35453L13.3538 4.60203C13.4073 4.73563 13.5367 4.82422 13.6801 4.82703C14.0007 4.82703 14.2004 4.92406 14.3663 5.08578C14.5323 5.2475 14.6546 5.48797 14.7263 5.76078C14.7981 6.03359 14.8178 6.33031 14.7938 6.58203C14.7699 6.83375 14.6842 7.03906 14.6476 7.08828C14.5843 7.16984 14.5604 7.27391 14.5801 7.37516C14.5984 7.47641 14.6603 7.565 14.7488 7.61703C14.7615 7.64938 14.7713 7.71969 14.7601 7.80828C14.7292 8.05578 14.6743 8.17672 14.6476 8.21328C14.4788 8.23438 14.3467 8.36938 14.3326 8.53953C14.3199 8.72516 14.2342 8.98391 14.1413 9.18078C14.0949 9.27922 14.0471 9.35797 14.0063 9.41703C13.9754 9.46063 13.9473 9.49438 13.9501 9.49578C13.8531 9.56188 13.794 9.67156 13.7926 9.78828C13.7926 10.1848 13.7884 10.49 13.8263 10.902C13.8306 10.933 13.8376 10.9625 13.8488 10.992C14.0021 11.4153 14.3481 11.6797 14.7151 11.8695C15.0821 12.0594 15.4956 12.1944 15.8738 12.3645C16.2521 12.5347 16.5953 12.7358 16.8413 12.9945C17.0129 13.1745 17.1268 13.4023 17.2013 13.6808H15.1201C15.1088 13.6808 15.0976 13.6808 15.0863 13.6808C14.9738 13.4966 14.8473 13.3334 14.7038 13.1858C14.2595 12.7288 13.7054 12.4419 13.1626 12.207C12.6198 11.9722 12.0854 11.7908 11.6776 11.5883C11.2838 11.3928 11.049 11.1847 10.9463 10.947C10.9196 10.5153 10.9126 10.1919 10.9126 9.81078C10.9506 9.76719 11.0124 9.73484 11.0476 9.68703C11.139 9.55906 11.229 9.41563 11.3063 9.24828C11.4413 8.95578 11.5215 8.61547 11.5763 8.28078C11.6748 8.22172 11.7929 8.22453 11.8688 8.12328C12.0263 7.91375 12.1346 7.62406 12.1951 7.22328C12.1993 7.21625 12.2035 7.20781 12.2063 7.20078C12.2288 6.95328 12.1937 6.7325 12.1163 6.54828C12.0967 6.50188 12.0306 6.49063 12.0038 6.44703C12.1206 6.21078 12.1979 5.945 12.2288 5.63703C12.2654 5.27703 12.2528 4.88469 12.1726 4.48953C12.496 4.40094 12.8757 4.36859 13.2413 4.35453ZM5.34385 4.36578L5.47885 4.62453C5.52947 4.73281 5.63072 4.80875 5.74885 4.82703C5.70103 5.35016 5.7826 5.89297 5.97385 6.41328C5.83744 6.60031 5.72775 6.85063 5.7601 7.20078C5.82338 7.82938 6.10463 8.1275 6.37885 8.29203C6.4365 8.63656 6.54057 8.98531 6.6826 9.27078C6.76557 9.43672 6.85697 9.58438 6.9526 9.70953C6.98775 9.75594 7.04963 9.78125 7.0876 9.82203C7.0876 10.2031 7.08057 10.5448 7.05385 10.947C6.95119 11.1847 6.71635 11.3928 6.3226 11.5883C5.91478 11.7908 5.38041 11.9722 4.8376 12.207C4.29478 12.4419 3.74072 12.7288 3.29635 13.1858C3.14447 13.3419 3.00806 13.5163 2.89135 13.7145C2.88713 13.7145 2.88432 13.7145 2.8801 13.7145H0.810096C0.886034 13.4361 0.997128 13.2083 1.1701 13.0283C1.419 12.7695 1.76635 12.5684 2.14885 12.3983C2.53135 12.2281 2.93775 12.0931 3.3076 11.9033C3.67744 11.7134 4.03041 11.4617 4.1851 11.037C4.19775 11.0047 4.20478 10.9709 4.2076 10.9358C4.24416 10.49 4.2526 10.1933 4.2526 9.83328C4.25541 9.70531 4.19213 9.58578 4.08385 9.51828C4.0726 9.50563 4.04869 9.48031 4.0276 9.45078C3.98541 9.39031 3.93057 9.30594 3.88135 9.20328C3.78291 8.99938 3.69713 8.735 3.6676 8.51703C3.64369 8.35672 3.51432 8.23156 3.3526 8.21328C3.32588 8.17672 3.27103 8.05578 3.2401 7.80828C3.22885 7.70563 3.24853 7.64656 3.2626 7.61703C3.40885 7.51719 3.46088 7.32734 3.38635 7.16703C3.08822 6.49203 3.14025 5.78891 3.4876 5.25453C3.80682 4.76234 4.42697 4.42203 5.34385 4.36578Z" fill="#FF730F"/>
</g>
<defs>
<clipPath id="clip0_194_7235">
<rect width="18" height="18" fill="white"/>
</clipPath>
</defs>
</svg>