<svg xmlns="http://www.w3.org/2000/svg" width="18" height="18" viewBox="0 0 18 18" fill="none">
<path d="M15.1201 2.20435V4.56055C15.0078 4.52095 14.8872 4.49935 14.7619 4.49935C14.6841 4.49935 14.606 4.50799 14.53 4.52455C13.4097 4.77007 11.685 5.14591 10.0491 5.50267C8.71856 5.79283 7.44704 6.07003 6.60644 6.25399C6.56324 6.26335 6.52112 6.27559 6.48044 6.28963V3.99247C7.37972 3.79987 13.891 2.45779 15.1201 2.20435ZM15.1201 11.3797V12.2401C15.1201 13.6081 14.822 14.4001 13.2985 14.4001C11.1601 14.4001 11.1601 13.5677 11.1601 12.9601C11.1601 12.4787 11.1601 11.8801 13.3201 11.8801C14.1711 11.8801 14.741 11.6763 15.1201 11.3797ZM5.76008 13.1797V14.0401C5.76008 15.4081 5.462 16.2001 3.93848 16.2001C1.80008 16.2001 1.80008 15.3677 1.80008 14.7601C1.80008 14.2787 1.80008 13.6801 3.96008 13.6801C4.81112 13.6801 5.381 13.4763 5.76008 13.1797ZM15.29 1.44727C15.2209 1.44727 15.1741 1.45807 15.1741 1.45807C15.1741 1.45807 6.84008 3.17527 6.25328 3.30487C5.90048 3.38047 5.76008 3.61447 5.76008 3.96007V11.5201C5.76008 12.3157 5.38928 12.9601 3.96008 12.9601C1.92248 12.9601 1.08008 13.4857 1.08008 14.7601C1.08008 15.6169 1.25648 16.9201 3.93848 16.9201C6.42608 16.9201 6.48008 15.0049 6.48008 14.0401V7.30843C6.48008 7.13923 6.59564 6.99343 6.76088 6.95707C8.6336 6.54739 12.6523 5.67259 14.6838 5.22763C14.71 5.22187 14.736 5.21899 14.7619 5.21899C14.9552 5.21899 15.1201 5.37595 15.1201 5.57935V9.72007C15.1201 10.5157 14.7493 11.1601 13.3201 11.1601C11.2825 11.1601 10.4401 11.6857 10.4401 12.9601C10.4401 13.8169 10.6165 15.1201 13.2985 15.1201C15.7861 15.1201 15.8401 13.2049 15.8401 12.2401V2.16007C15.8401 1.53079 15.4808 1.44727 15.29 1.44727Z" fill="#FF730F"/>
</svg>