<svg xmlns="http://www.w3.org/2000/svg" width="18" height="18" viewBox="0 0 18 18" fill="none">
<path d="M4.30463 5.03556C4.21182 5.04119 4.12463 5.08197 4.06135 5.15088L0.365723 8.99978L4.06135 12.8487C4.14994 12.9429 4.28213 12.9823 4.40729 12.9513C4.53244 12.9204 4.63229 12.8248 4.66744 12.701C4.704 12.5759 4.67025 12.4423 4.57885 12.3509L1.70869 9.35978L17.2801 9.35978C17.4095 9.36119 17.5304 9.29369 17.5965 9.18119C17.6612 9.06869 17.6612 8.93088 17.5965 8.81838C17.5304 8.70588 17.4095 8.63838 17.2801 8.63978L1.70869 8.63978L4.57885 5.64869C4.68432 5.54322 4.71385 5.38431 4.65197 5.24931C4.5915 5.11291 4.45369 5.02853 4.30463 5.03556Z" fill="white"/>
</svg>