<svg xmlns="http://www.w3.org/2000/svg" width="33" height="32" viewBox="0 0 33 32" fill="none">
<path d="M10.6664 3.26563C10.4825 3.2657 10.3 3.28082 10.1239 3.30938H10.1227C9.44785 3.41997 8.7932 3.62876 8.26145 3.92188V3.92063C7.57608 4.2971 7.03928 4.81672 6.47645 5.42563C5.43043 6.55835 4.76103 7.92042 4.56145 9.36063V9.36188C4.53207 9.57708 4.51645 9.79503 4.51645 10.0131C4.51645 13.6822 7.62553 16.6519 11.4039 16.6519C12.135 16.6519 12.8265 16.508 13.4914 16.3031C13.505 16.4616 13.5286 16.6175 13.5639 16.7731C13.5619 16.7844 13.5578 16.8031 13.5589 16.7994L13.5564 16.8069L13.5539 16.8144C13.3142 17.6947 12.9746 18.3048 12.5902 18.6769C12.2058 19.0489 11.7841 19.2181 11.2002 19.2181C10.3158 19.2181 9.83264 18.8915 9.30395 18.5444V18.5431C9.00083 18.3445 8.68188 18.116 8.2302 18.0256H8.22895C8.03997 17.9883 7.84455 17.9694 7.6477 17.9694C7.12119 17.9694 6.58773 18.0984 6.08395 18.3344C5.08557 18.8009 4.48038 19.8286 4.15395 20.7181C4.00063 21.1348 3.91832 21.5757 3.91895 22.0119C3.91895 22.1963 3.93408 22.3779 3.9627 22.5544V22.5556C4.07329 23.2305 4.28208 23.8864 4.5752 24.4181C4.95163 25.1031 5.47029 25.6393 6.07895 26.2019V26.2031C7.21167 27.2491 8.57374 27.9173 10.0139 28.1169H10.0152C10.2304 28.1463 10.4496 28.1619 10.6677 28.1619C14.3367 28.1619 17.3052 25.0528 17.3052 21.2744C17.3052 20.5429 17.1615 19.8509 16.9564 19.1856C17.1206 19.1727 17.2807 19.1505 17.4339 19.1169C17.4399 19.118 17.4554 19.1214 17.4527 19.1206L17.4602 19.1219L17.4677 19.1244C18.348 19.3641 18.9582 19.7038 19.3302 20.0881C19.7022 20.4725 19.8727 20.8942 19.8727 21.4781C19.8727 22.3626 19.5448 22.8457 19.1977 23.3744V23.3756C18.999 23.6787 18.7693 23.9964 18.6789 24.4481V24.4494V24.4506C18.6416 24.6396 18.6239 24.8338 18.6239 25.0306C18.6239 25.5571 18.7529 26.0906 18.9889 26.5944H18.9877C19.4539 27.5929 20.4806 28.1978 21.3702 28.5244C21.7876 28.6781 22.2294 28.7602 22.6664 28.7594C22.8504 28.7593 23.0316 28.7442 23.2077 28.7156H23.2089C23.8838 28.605 24.5397 28.3962 25.0714 28.1031C25.7561 27.7267 26.294 27.2078 26.8564 26.5994C27.9025 25.4667 28.5706 24.1046 28.7702 22.6644V22.6631C28.7996 22.4479 28.8152 22.23 28.8152 22.0119C28.8152 18.3428 25.7061 15.3731 21.9277 15.3731C21.1974 15.3731 20.5069 15.5161 19.8427 15.7206C19.8298 15.558 19.8072 15.3979 19.7714 15.2381C19.7719 15.2355 19.7745 15.2238 19.7739 15.2256L19.7764 15.2181L19.7777 15.2106C20.0174 14.3303 20.3571 13.7202 20.7414 13.3481C21.1258 12.9761 21.5475 12.8069 22.1314 12.8069C23.0159 12.8069 23.5003 13.1335 24.0289 13.4806C24.3321 13.6793 24.651 13.909 25.1027 13.9994H25.1039C25.2929 14.0367 25.4871 14.0556 25.6839 14.0556C26.2105 14.0556 26.7452 13.9254 27.2489 13.6894C28.2465 13.2228 28.8513 12.1972 29.1777 11.3081V11.3069C29.3312 10.8898 29.4135 10.4485 29.4127 10.0119C29.4126 9.82791 29.3975 9.64673 29.3689 9.47063V9.46938C29.2584 8.79491 29.0505 8.13971 28.7577 7.60813V7.60688C28.3812 6.92186 27.8614 6.38448 27.2527 5.82188C26.12 4.77586 24.7579 4.10771 23.3177 3.90813H23.3164C23.1013 3.87875 22.8833 3.86313 22.6652 3.86313C18.9962 3.86313 16.0264 6.97221 16.0264 10.7506C16.0264 11.4736 16.1677 12.1575 16.3689 12.8156C16.19 12.83 16.0172 12.858 15.8514 12.8969C14.9784 12.6574 14.3728 12.3193 14.0027 11.9369C13.6307 11.5525 13.4602 11.1308 13.4602 10.5469C13.4602 9.66244 13.7868 9.17932 14.1339 8.65063L14.1352 8.64938C14.3339 8.34627 14.5624 8.02856 14.6527 7.57688V7.57563V7.57438C14.69 7.3854 14.7089 7.19123 14.7089 6.99438C14.7089 6.46787 14.58 5.93441 14.3439 5.43063C13.8776 4.43183 12.8512 3.82716 11.9614 3.50063C11.5444 3.34703 11.1043 3.26499 10.6677 3.26563H10.6664ZM10.6677 4.54563C10.9398 4.54514 11.2413 4.59962 11.5189 4.70188H11.5202C12.1651 4.93855 12.9834 5.54231 13.1839 5.97188V5.97313C13.3473 6.32183 13.4289 6.68121 13.4289 6.99438C13.4289 7.11112 13.418 7.22402 13.3977 7.32688C13.3739 7.44488 13.2618 7.64627 13.0639 7.94813H13.0652C12.7173 8.47799 12.1802 9.3142 12.1802 10.5469C12.1802 11.4151 12.4938 12.2184 13.0827 12.8269C13.4296 13.1852 13.8691 13.4706 14.3739 13.7081C14.3384 13.744 14.301 13.7781 14.2677 13.8156C13.9773 14.1424 13.7742 14.5217 13.6427 14.9219C12.9597 15.208 12.2058 15.3719 11.4039 15.3719C8.29212 15.3719 5.79645 12.9591 5.79645 10.0131C5.79645 9.8566 5.80849 9.69506 5.8302 9.53563V9.53438C5.99178 8.37033 6.53252 7.25157 7.41645 6.29438C7.94802 5.71929 8.38162 5.31562 8.8777 5.04313H8.87895V5.04188C9.23396 4.84619 9.78568 4.6623 10.3289 4.57313C10.4366 4.55567 10.5526 4.54563 10.6677 4.54563ZM22.6652 5.14313C22.8217 5.14313 22.9833 5.15392 23.1427 5.17563C24.3073 5.33701 25.4277 5.87891 26.3852 6.76313C26.9594 7.29404 27.363 7.72876 27.6352 8.22438H27.6364V8.22563C27.8323 8.58092 28.0174 9.1332 28.1064 9.67688L28.1052 9.67563C28.1227 9.78329 28.1327 9.89801 28.1327 10.0131V10.0144C28.1332 10.2865 28.0787 10.588 27.9764 10.8656C27.7398 11.5106 27.136 12.3301 26.7064 12.5306H26.7052C26.3565 12.694 25.9971 12.7756 25.6839 12.7756C25.5672 12.7756 25.4543 12.7634 25.3514 12.7431C25.2336 12.7192 25.0323 12.6077 24.7314 12.4106H24.7302C24.2003 12.0627 23.3636 11.5269 22.1314 11.5269C21.2632 11.5269 20.4599 11.8405 19.8514 12.4294C19.4935 12.7758 19.2075 13.2151 18.9702 13.7194C18.6462 13.3885 18.2331 13.1257 17.7477 12.9681C17.4668 12.2905 17.3064 11.5447 17.3064 10.7506C17.3064 7.6388 19.7192 5.14313 22.6652 5.14313ZM16.6664 14.0806C16.8142 14.0806 16.9656 14.1043 17.1302 14.1456L17.5402 14.2481C17.7706 14.3506 17.9551 14.494 18.1077 14.6656C18.2618 14.839 18.3804 15.0474 18.4614 15.2744L18.4564 15.2981L18.5039 15.4581C18.5284 15.539 18.5449 15.6157 18.5602 15.6919C18.5747 15.7938 18.5864 15.8968 18.5864 16.0006C18.5864 16.0793 18.5748 16.1567 18.5664 16.2344C18.5574 16.3001 18.5552 16.3633 18.5389 16.4331C18.4704 16.7728 18.3261 17.09 18.1077 17.3356C17.9241 17.5422 17.6861 17.7011 17.3852 17.8031L17.3802 17.8019L17.2214 17.8506C17.1753 17.8645 17.1323 17.8721 17.0877 17.8831C16.9574 17.9052 16.8206 17.9206 16.6664 17.9206C16.4963 17.9206 16.3427 17.906 16.2014 17.8794L16.1989 17.8781L16.1764 17.8731C15.7555 17.7882 15.454 17.593 15.2252 17.3356C15.0729 17.1643 14.9561 16.9583 14.8752 16.7344L14.8764 16.7269L14.8364 16.5969C14.8275 16.5654 14.819 16.5339 14.8114 16.5019C14.7975 16.4514 14.7867 16.4018 14.7764 16.3531C14.7576 16.2373 14.7464 16.1192 14.7464 16.0006C14.7464 15.9346 14.7568 15.8698 14.7627 15.8044C14.7736 15.7208 14.7764 15.6412 14.7989 15.5506V15.5481C14.8693 15.2162 15.0112 14.9064 15.2252 14.6656C15.4001 14.4688 15.6237 14.3149 15.9039 14.2119L15.9514 14.2219L16.1114 14.1744C16.3087 14.1149 16.4894 14.0806 16.6664 14.0806ZM21.9277 16.6531C25.0395 16.6531 27.5352 19.0659 27.5352 22.0119C27.5352 22.1688 27.5245 22.3308 27.5027 22.4906C27.3411 23.6548 26.8004 24.7734 25.9164 25.7306C25.3849 26.3057 24.95 26.7094 24.4539 26.9819V26.9831C24.0987 27.179 23.5451 27.3628 23.0014 27.4519C22.8941 27.4692 22.7799 27.4794 22.6652 27.4794H22.6639C22.3918 27.4799 22.0903 27.4254 21.8127 27.3231C21.1678 27.0865 20.3482 26.4814 20.1477 26.0519C19.9843 25.7032 19.9039 25.3438 19.9039 25.0306C19.9039 24.9143 19.915 24.8019 19.9352 24.6994V24.6981C19.959 24.5801 20.0699 24.3787 20.2677 24.0769C20.6156 23.547 21.1527 22.7108 21.1527 21.4781C21.1527 20.6099 20.8391 19.8066 20.2502 19.1981C19.8999 18.8362 19.4544 18.5482 18.9427 18.3094C18.984 18.2683 19.0268 18.2288 19.0652 18.1856C19.3494 17.8659 19.5521 17.4963 19.6839 17.1056C20.3684 16.8178 21.1233 16.6531 21.9277 16.6531ZM14.3689 18.2881C14.6891 18.6131 15.096 18.8712 15.5727 19.0281C15.8608 19.713 16.0252 20.4697 16.0252 21.2744C16.0252 24.3862 13.6137 26.8819 10.6677 26.8819C10.5108 26.8819 10.3488 26.8699 10.1889 26.8481L10.1902 26.8494C9.0257 26.6879 7.90522 26.1461 6.9477 25.2619C6.37261 24.7303 5.96894 24.2967 5.69645 23.8006V23.7994C5.50076 23.4444 5.31562 22.8926 5.22645 22.3494V22.3481C5.20911 22.2408 5.19895 22.1266 5.19895 22.0119V22.0106C5.19846 21.7385 5.25294 21.437 5.3552 21.1594V21.1581C5.59187 20.5132 6.19688 19.6949 6.62645 19.4944C6.97515 19.331 7.33453 19.2494 7.6477 19.2494C7.76444 19.2494 7.87734 19.2616 7.9802 19.2819C8.09824 19.3058 8.29985 19.4167 8.60145 19.6144C9.13132 19.9623 9.96752 20.4981 11.2002 20.4981C12.0684 20.4981 12.8718 20.1846 13.4802 19.5956C13.8424 19.2451 14.13 18.8 14.3689 18.2881Z" fill="#FF730F"/>
</svg>