<svg xmlns="http://www.w3.org/2000/svg" width="52" height="41" viewBox="0 0 52 41" fill="none">
<path d="M25.9823 0.822266C25.9123 0.82664 25.8467 0.831016 25.7767 0.848516C21.0779 0.887891 16.6767 2.18727 12.8923 4.42727C12.8004 4.46664 12.7129 4.51914 12.6298 4.58039C8.78418 6.92102 5.60355 10.2504 3.4248 14.2054C3.36793 14.2841 3.3198 14.3673 3.2848 14.4591C1.3773 18.016 0.283555 22.0716 0.248555 26.3723C0.21793 26.521 0.21793 26.6698 0.248555 26.8141C0.283555 31.5479 1.4648 35.7041 3.76168 39.5148C4.02855 39.9566 4.56668 40.1579 5.06105 40.0004C5.55543 39.8429 5.87918 39.366 5.8398 38.8498L5.8923 39.5366L10.0967 37.0998C10.4554 36.9073 10.6786 36.5354 10.6786 36.1285C10.6829 35.7216 10.4642 35.3454 10.1098 35.1441C9.75543 34.9429 9.3223 34.9516 8.9723 35.1616L5.23605 37.3273C3.64355 34.3785 2.68105 31.2854 2.5148 27.7198H6.9598C7.3623 27.7241 7.73855 27.5141 7.94418 27.1641C8.14543 26.8141 8.14543 26.3854 7.94418 26.0354C7.73855 25.6854 7.3623 25.4754 6.9598 25.4798H2.5148C2.66793 22.2335 3.49043 19.171 4.8248 16.4016C5.4548 16.7429 6.46105 17.2854 8.72293 18.5148C9.0773 18.716 9.51043 18.7116 9.86043 18.5016C10.2061 18.2916 10.4161 17.9066 10.3986 17.5041C10.3854 17.0973 10.1536 16.7298 9.79043 16.5416C7.52856 15.3166 6.52668 14.7741 5.8923 14.4329C7.68605 11.4798 10.0836 8.94227 12.9492 7.03039L15.2548 10.8673C15.4561 11.2129 15.8323 11.4273 16.2348 11.4229C16.6417 11.4141 17.0092 11.1954 17.2061 10.841C17.3986 10.4866 17.3854 10.0535 17.1754 9.71227L14.8698 5.87539C17.8754 4.26102 21.2704 3.28539 24.8798 3.11477V7.55977C24.8754 7.96227 25.0854 8.33852 25.4354 8.54414C25.7854 8.74539 26.2142 8.74539 26.5642 8.54414C26.9142 8.33852 27.1242 7.96227 27.1198 7.55977V3.11477C30.3661 3.26789 33.4373 4.07289 36.2067 5.40727L34.0848 9.32289C33.8836 9.67727 33.8879 10.1104 34.0979 10.4604C34.3079 10.806 34.6929 11.016 35.0954 10.9985C35.5023 10.9854 35.8698 10.7535 36.0579 10.3904L38.1754 6.47914C41.1286 8.26852 43.6573 10.6835 45.5692 13.5491L41.7323 15.8548C41.3867 16.056 41.1723 16.4323 41.1767 16.8348C41.1854 17.2416 41.4042 17.6091 41.7586 17.806C42.1129 17.9985 42.5461 17.9854 42.8873 17.7754L46.7242 15.4698C48.3386 18.4754 49.3142 21.8704 49.4848 25.4798H45.0398C44.6373 25.4754 44.2611 25.6854 44.0554 26.0354C43.8542 26.3854 43.8542 26.8141 44.0554 27.1641C44.2611 27.5141 44.6373 27.7241 45.0398 27.7198H49.4848C49.3186 31.2854 48.3561 34.3785 46.7679 37.3273L43.0273 35.1616C42.6773 34.9516 42.2442 34.9429 41.8898 35.1441C41.5354 35.3454 41.3167 35.7216 41.3211 36.1285C41.3211 36.5354 41.5442 36.9073 41.9029 37.0998L46.1073 39.5366L46.1598 38.8498C46.1204 39.366 46.4442 39.8429 46.9386 40.0004C47.4329 40.1579 47.9711 39.9566 48.2379 39.5148C50.5348 35.7085 51.7161 31.5523 51.7554 26.8273C51.7817 26.6785 51.7817 26.5254 51.7554 26.381C51.7117 21.6735 50.4079 17.2635 48.1592 13.4791C48.1286 13.396 48.0848 13.3216 48.0323 13.2473C48.0279 13.2473 48.0279 13.2473 48.0279 13.2473C48.0279 13.2429 48.0236 13.2429 48.0192 13.2385C45.6829 9.39727 42.3623 6.22102 38.4161 4.04227C38.3198 3.96789 38.2148 3.91539 38.1054 3.87602C34.5529 1.97727 30.5104 0.883516 26.2142 0.848516C26.1398 0.831016 26.0611 0.822266 25.9823 0.822266ZM38.9454 17.841C38.7311 17.8366 38.5211 17.8935 38.3373 18.0073L28.1348 24.036C27.5529 23.546 26.8136 23.2398 25.9998 23.2398C24.1579 23.2398 22.6398 24.7579 22.6398 26.5998C22.6398 28.4416 24.1579 29.9598 25.9998 29.9598C27.8417 29.9598 29.3598 28.4416 29.3598 26.5998C29.3598 26.381 29.3336 26.1623 29.2942 25.9523L39.4748 19.9323C39.9123 19.6829 40.1267 19.171 40.0042 18.6854C39.8817 18.1998 39.4486 17.8541 38.9454 17.841ZM25.9998 25.4798C26.3542 25.4798 26.6517 25.6416 26.8529 25.8866C26.8967 26.0048 26.9623 26.1098 27.0454 26.206C27.0892 26.3285 27.1198 26.4598 27.1198 26.5998C27.1198 27.2298 26.6298 27.7198 25.9998 27.7198C25.3698 27.7198 24.8798 27.2298 24.8798 26.5998C24.8798 25.9698 25.3698 25.4798 25.9998 25.4798ZM19.2798 35.5598C18.8773 35.5554 18.5011 35.7654 18.2954 36.1154C18.0942 36.4654 18.0942 36.8941 18.2954 37.2441C18.5011 37.5941 18.8773 37.8041 19.2798 37.7998H32.7198C33.1223 37.8041 33.4986 37.5941 33.7042 37.2441C33.9054 36.8941 33.9054 36.4654 33.7042 36.1154C33.4986 35.7654 33.1223 35.5554 32.7198 35.5598H19.2798Z" fill="#FF730F"/>
</svg>