<svg xmlns="http://www.w3.org/2000/svg" width="18" height="18" viewBox="0 0 18 18" fill="none">
<path d="M8.99996 1.08008C7.41135 1.08008 6.11996 2.38941 6.11996 3.99031C6.11996 4.32934 6.20322 4.6457 6.3091 4.94867C6.30577 4.99934 6.3132 5.05014 6.3309 5.09773L7.58316 8.40734C7.60902 8.47575 7.6551 8.53466 7.71526 8.57624C7.77543 8.61781 7.84683 8.64008 7.91996 8.64008V12.2401C6.61133 12.2401 5.56379 13.2586 5.44496 14.5372C4.58969 14.825 3.95996 15.6106 3.95996 16.5601C3.95997 16.6556 3.9979 16.7471 4.06541 16.8146C4.13292 16.8821 4.22449 16.9201 4.31996 16.9201H13.68C13.7754 16.9201 13.867 16.8821 13.9345 16.8146C14.002 16.7471 14.04 16.6556 14.04 16.5601C14.04 15.6106 13.4102 14.825 12.555 14.5372C12.4361 13.2586 11.3886 12.2401 10.08 12.2401V8.64008C10.1531 8.64008 10.2245 8.61781 10.2847 8.57624C10.3448 8.53466 10.3909 8.47575 10.4168 8.40734L11.6683 5.09703C11.686 5.05015 11.6936 5.00009 11.6908 4.95008C11.7973 4.6466 11.88 4.32955 11.88 3.99031C11.88 2.38941 10.5886 1.08008 8.99996 1.08008ZM8.99996 1.80008C9.25285 1.80008 9.49463 1.84563 9.71996 1.92594V3.24008C9.71996 3.64208 9.40196 3.96008 8.99996 3.96008C8.59796 3.96008 8.27996 3.64208 8.27996 3.24008V1.92594C8.5053 1.84563 8.74707 1.80008 8.99996 1.80008ZM7.55996 2.35836V3.24008C7.55996 4.03112 8.20892 4.68008 8.99996 4.68008C9.791 4.68008 10.44 4.03112 10.44 3.24008V2.35836C10.881 2.75834 11.16 3.33853 11.16 3.99031C11.16 4.28857 11.1012 4.57109 10.9947 4.82984C10.963 4.90677 10.9589 4.99231 10.9831 5.07191C11.0074 5.15152 11.0584 5.22027 11.1276 5.26648L10.8935 5.11039L9.83105 7.92008H8.99996H8.16887L7.10574 5.11109L6.8716 5.26719C6.94092 5.22108 6.99212 5.15237 7.01647 5.07275C7.04083 4.99314 7.03685 4.90755 7.0052 4.83055C6.89895 4.5716 6.83996 4.28898 6.83996 3.99031C6.83996 3.33853 7.11894 2.75834 7.55996 2.35836ZM8.63996 8.64008H8.99996H9.35996V12.2401H8.63996V8.64008ZM7.91996 12.9601H10.08C10.9505 12.9601 11.6371 13.5822 11.8075 14.4001H6.19238C6.36283 13.5822 7.0494 12.9601 7.91996 12.9601ZM6.11996 15.1201H11.88C12.5514 15.1201 13.0864 15.5816 13.2482 16.2001H4.75168C4.91351 15.5816 5.4485 15.1201 6.11996 15.1201Z" fill="#FF730F"/>
</svg>