<svg xmlns="http://www.w3.org/2000/svg" width="19" height="19" viewBox="0 0 19 19" fill="none">
<g clip-path="url(#clip0_117_11153)">
<path d="M12.6522 2.46875C10.4992 2.46875 8.74847 4.21953 8.74847 6.3725C8.74847 6.50187 8.78081 6.62844 8.79347 6.755C6.13144 6.50047 3.77737 5.21797 2.17847 3.25625C2.10394 3.16203 1.98862 3.11141 1.86769 3.11984C1.74816 3.12828 1.64128 3.19719 1.58222 3.30125C1.24612 3.87922 1.05347 4.54438 1.05347 5.25875C1.05347 6.12359 1.36284 6.91531 1.84097 7.565C1.74816 7.52422 1.64691 7.50172 1.55972 7.4525C1.44862 7.39344 1.31503 7.39625 1.20675 7.46094C1.09847 7.52563 1.03237 7.64234 1.03097 7.7675V7.8125C1.03097 9.13859 1.71722 10.2903 2.72972 10.9963C2.71847 10.9948 2.70722 10.9991 2.69597 10.9963C2.57222 10.9752 2.44706 11.0188 2.36409 11.113C2.28112 11.2072 2.25441 11.338 2.29097 11.4575C2.69316 12.7077 3.71972 13.6625 4.99097 14.0113C3.97847 14.6131 2.80425 14.9675 1.53722 14.9675C1.263 14.9675 1.00003 14.9534 0.738468 14.9225C0.569718 14.9 0.407999 14.9984 0.351749 15.1588C0.294093 15.3191 0.357374 15.4977 0.502218 15.5863C2.12644 16.6283 4.0544 17.24 6.12722 17.24C9.48675 17.24 12.1221 15.8366 13.8897 13.8313C15.6574 11.8259 16.5785 9.22156 16.5785 6.78875C16.5785 6.68609 16.57 6.58625 16.5672 6.485C17.2267 5.98016 17.816 5.38813 18.2772 4.69625C18.3686 4.56266 18.3588 4.38406 18.2533 4.26031C18.1492 4.13656 17.9735 4.09859 17.8272 4.1675C17.6416 4.25047 17.425 4.25891 17.231 4.325C17.4869 3.98328 17.7063 3.61484 17.8385 3.2C17.8835 3.05797 17.8342 2.90188 17.7175 2.80906C17.6008 2.71766 17.4377 2.70641 17.3097 2.78375C16.6952 3.14797 16.0146 3.40391 15.296 3.56C14.5985 2.9075 13.6802 2.46875 12.6522 2.46875ZM12.6522 3.18875C13.5705 3.18875 14.4002 3.58109 14.981 4.20125C15.0682 4.29125 15.1961 4.32922 15.3185 4.3025C15.7882 4.20969 16.2339 4.07328 16.6685 3.8975C16.4182 4.235 16.1088 4.52328 15.746 4.74125C15.5814 4.82141 15.5041 5.01125 15.5646 5.18422C15.6236 5.35578 15.8036 5.45563 15.9822 5.41625C16.3422 5.37266 16.6628 5.22641 17.006 5.135C16.698 5.46828 16.3605 5.76922 15.9935 6.035C15.8936 6.10813 15.8388 6.22625 15.8472 6.35C15.8528 6.49625 15.8585 6.64109 15.8585 6.78875C15.8585 9.03875 14.995 11.4814 13.3497 13.3475C11.7044 15.2136 9.28847 16.52 6.12722 16.52C4.69144 16.52 3.33581 16.2022 2.11097 15.6425C3.62972 15.5258 5.03034 14.9886 6.16097 14.1013C6.27909 14.007 6.3255 13.8495 6.27769 13.7061C6.22987 13.5627 6.09769 13.4642 5.94722 13.46C4.76034 13.4389 3.76612 12.7484 3.23597 11.7725C3.25566 11.7725 3.27253 11.7725 3.29222 11.7725C3.648 11.7725 3.99956 11.7275 4.32722 11.6375C4.48472 11.5911 4.593 11.4448 4.58737 11.2803C4.58175 11.1158 4.46503 10.9752 4.30472 10.94C3.02362 10.6813 2.06316 9.63781 1.84097 8.34125C2.20378 8.46641 2.57503 8.56484 2.97722 8.5775C3.14175 8.58734 3.29081 8.48469 3.34144 8.32859C3.39206 8.1725 3.33019 8.00094 3.19097 7.91375C2.33597 7.34141 1.77347 6.36688 1.77347 5.25875C1.77347 4.84812 1.88034 4.47125 2.02097 4.11125C3.82097 6.08703 6.34097 7.39906 9.18722 7.5425C9.29972 7.54813 9.4094 7.50172 9.48253 7.41594C9.55565 7.32875 9.58378 7.21344 9.55847 7.10375C9.50362 6.87031 9.46847 6.62281 9.46847 6.3725C9.46847 4.60906 10.8888 3.18875 12.6522 3.18875Z" fill="#212121"/>
</g>
<defs>
<clipPath id="clip0_117_11153">
<rect width="18" height="18" fill="white" transform="translate(0.333496 0.5)"/>
</clipPath>
</defs>
</svg>